<svg xmlns="http://www.w3.org/2000/svg" xmlns:xlink="http://www.w3.org/1999/xlink" preserveAspectRatio="xMidYMid meet" version="1.0" viewBox="-6.9 -0.4 597.9 1003.8" zoomAndPan="magnify" style="fill: rgb(77, 74, 75);" original_string_length="5665"><g id="__id134_sw8tgu89h"><path d="M584.3,988.2c-75.9-49.9-140.4-116.7-187.6-194.3c-1.6-2.6-3.1-5.2-4.7-7.8c-0.4-0.8-0.9-1.6-1.4-2.4 c-49.2-84.8-75.3-180.5-93.9-276.2c-11.5-59-18.6-120.1-6.6-179.6c16.5-9.2,35.6-9.2,54.1-8.6c22,0.7,43.9,0.9,65.9-0.3 c38-2.1,78.8-6.5,110.9-28.8c26.8-18.6,44.7-47.8,52.1-79.4c3.7-16,5-32.6,3.4-48.9c-0.9-8.6-2-17.5-5.6-25.4 c-3.9-8.5-11.4-13.6-17.6-20.2c-13.6-14.2-21.5-32.7-40.3-41.3c-5.5-2.5-11.4-4.1-17.3-4.9c-12.9-22.9-43.4-35-68.5-27.2 c-6.6-4.7-13.7-8.7-21.5-11.5c-15.2-5.6-33.1-3.9-46-14.8c-5.3-4.4-9.9-9.7-16.1-12.9c-7.8-4.1-16.6-4-25.2-3.5 c-19.9,1.1-39.7,2.4-59.6,3.6c-11,0.7-21,2.3-30.2,6.6c-8.9-7-22.5-7-33.2-6.3c-8.4,0.5-16.7,2.2-25.2,2.2c-7.8,0-15.2-0.1-22.5,3.1 c-22,9.6-35.9,37.1-31.5,60.8c-6,2.4-11.7,5.5-16.5,9.2c-16.3,12.1-29,27.9-44,41.5c-15.1,13.6-32.3,25.1-43,43 c-19.6,32.7-16,74.9,8.6,103.8c26.9,31.6,69.2,42.1,108.8,46c25.9,2.6,52,3.6,78,5.2c13.2,0.8,26.6,0.9,39.6,2.9 c10.1,1.5,20,3.9,29.8,6.7c-9.9,52.2-5.9,105.5,2.8,157.6c9,53.4,21.3,106.7,37.3,158.5c13.7,44.2,30.8,87.5,52.7,128.2 c-28-15.2-55-32.6-79.1-53.6c-27.4-24-50.4-52.4-67.8-84.4c-10.5-19.5-19-40-25.9-61c17.4-55.2-1.1-118.2-44.6-156.3 c-9.4-8.2-22.1-19.7-35.6-15.6c-10.9,3.3-15,15.3-16.2,25.5c-3.2,28.4,5.7,57.8,20,82.1c16,27.3,39.4,49.2,64.5,68.1 c12.4,37.2,29.5,72.9,53.4,104.1c23.1,30.2,51.5,55.4,83,76.5c19,12.8,39.1,24.1,59.5,34.5c22.2,37.6,48.3,72.9,77.7,105.1 c35.2,38.5,75.2,72.5,118.8,101.1C584.7,1003.4,591,992.6,584.3,988.2z M299.4,294.8c41.1-56.6,105.9-93,144-152.6 c9.1-14.2,16.3-29.6,20.8-45.9c3.6,5.2,6.5,10.7,8.6,16.6c-34.4,64.6-97,106.7-148.7,156.3C315.6,277.5,307.4,286,299.4,294.8z M446.9,162.2c10.6-12.7,20.2-26.2,28.4-40.6c0.3,1.7,0.6,3.4,0.8,5.1c3.4,28.7-9.3,57.3-28.3,78.2c-23.4,25.7-54.9,43.1-85.3,59.2 c-18.8,10-38.4,19.5-55.8,31.8C350.4,248.3,405.3,211.8,446.9,162.2z M510,282.6c-31,19.3-69.2,22.5-104.8,24.2 c-22.5,1.1-44.9,0.3-67.4-0.1c-5.7-0.1-11.4,0-17,0.4c62.2-18.8,127.4-26.9,188-51c14.7-5.8,28.9-12.6,42.5-20.6 C542.1,254.6,528.2,271.3,510,282.6z M559.3,140.9c3.8,7.2,4.5,16.6,5.1,24.6c1.1,15-0.1,30.1-3.8,44.7c-1.3,5.2-3,10.4-4.9,15.4 c-61.3,38.4-134.3,48.8-203.3,66.3c-9.7,2.4-19.3,5-28.9,7.9c14.5-9.2,30.2-16.8,45.3-24.8c28.9-15.4,58.6-32,82.1-55.2 c8.3-8.2,15.6-17.3,21.6-27.3c29.4-15.8,58.1-34.6,76.7-63C553,132.9,556.8,136.4,559.3,140.9z M490.6,82.1c0.2,0,0.3,0,0.5,0 c6.2,0.4,12.4,2,18.1,4.9c15.1,7.7,22.5,23.7,33.4,36c0.6,0.7,1.3,1.4,2,2.1c-16.1,25.2-40.7,42.6-66.5,57.2 c6.7-13.8,10.7-28.8,11.1-44.4c0.3-14.8-3-29.7-10.5-42.5c-2.1-3.5-4.4-6.9-6.9-10.2C477.7,82.9,484.2,81.8,490.6,82.1z M480.4,70.2 c-6,0.8-11.8,2.5-17.3,5.1c-5.7-6.1-11.9-11.8-17.9-17.4c-1.7-1.6-3.4-3.2-5.2-4.7C455.1,52.2,470.7,58.7,480.4,70.2z M154.3,20 c5.8-2,12-1.2,17.9-1.3c7-0.2,13.8-1.4,20.8-2c6.7-0.5,16.3-1.4,23.4,1.2c-0.3,0.2-0.6,0.5-0.9,0.7C204,28.3,195,41.6,188.2,55 c-3.2,6.3-6,12.9-8.3,19.6c-14.3-10.6-33.8-12.4-51.7-8.2C125.7,48,136.8,26.1,154.3,20z M134.1,77.5c14.2-2.1,31,0,41.9,10.1 c-4.9,18.8-6.5,38.5-5.1,57.9c2.5,36.2,14.9,70.5,34.7,100.7c11.7,17.8,25.4,34.1,40.1,49.5c-55.3-32.3-101.9-79.2-132.9-135.4 c-9.7-17.5-17.7-35.8-24.1-54.7C101.5,92.7,115.5,80.3,134.1,77.5z M164.6,303.6c-39-2.4-80.3-4.6-113.9-26.8 c-14.3-9.4-26.7-22.6-33.2-38.6c-3.8-9.5-5.5-19.7-5.2-29.9c45.4,46.2,103.5,78.9,165.8,96C173.6,304.1,169.1,303.9,164.6,303.6z M215.9,306.4c-56.5-9.8-110.8-32.2-157.2-66.1c-16.4-12-31.7-25.5-45.8-40.3c0.5-4.2,1.4-8.4,2.7-12.5c5.3-18,17.1-31.2,31.1-43.2 c6.2-5.3,12.3-10.6,18.2-16.1c12.8,32.9,32.2,62.8,55.5,89.3c25.5,29,55.8,55.4,89.1,75.1c11,6.5,22.5,12.1,34.4,16.4 C234.7,307.9,225.3,307.1,215.9,306.4z M171.6,258.2c-28.9-23.6-54.9-51-75.2-82.3c-10.7-16.4-19.7-33.8-26.6-52.1 c4.7-4.4,9.3-8.9,13.9-13.4c24.6,70.3,72.1,131.4,133,174.2c9.7,6.8,19.8,13.2,30.1,19C219.2,293.8,194.2,276.7,171.6,258.2z M186.9,171.2c-6.1-28.3-5.6-58.4,2.7-86.2c6.4-21.4,19.5-49.2,40.3-61.6c0,0,0.1,0,0.1-0.1c2.2-1.3,4.5-2.5,6.9-3.4 c-29,76.9-35.8,163.9,0,239.8c3.1,6.5,6.4,12.8,10,18.9C218.8,247.9,195.7,212.7,186.9,171.2z M224.8,83.5 c4.5-22.5,11.2-44.4,19.5-65.8c7.2-1.5,14.6-1.5,21.9-2c9.9-0.6,19.9-1.2,29.8-1.8c15.4-0.9,35-5.9,47.7,5c5.3,4.6,10.1,9.7,16.4,13 c1.2,0.6,2.4,1.2,3.6,1.7c-15.3,77.6-103.5,121.5-106.2,204.1c-0.7,21.6,4.4,42.7,12,62.8C221.2,240.2,209.9,158.3,224.8,83.5z M278.8,307c-8.8-20.9-15.1-43.1-15.1-65.9c0.1-20.9,6.4-40.9,16.4-59.2c18.6-34.2,46.9-61.7,67.6-94.5c10.1-16,18.2-33.2,21.9-51.7 c3.6,1.1,7.3,1.9,11.1,2.6c0.5,0.1,1,0.2,1.6,0.3c1.6,40.1-22.2,75.3-45.7,106c-24.9,32.6-50.5,64.8-57.9,106.3 C275.4,269.6,275.4,288.6,278.8,307z M307.4,195.4c21.3-34.3,51-63,68.2-99.9C383.8,78,389,59.3,388.5,40c12.5,2.9,23.5,7,34.3,15.1 c12.4,9.4,24,20.9,34.4,32.4c0.8,0.8,1.5,1.7,2.2,2.6c-18,75.3-91.1,119.6-141.4,172.8c-12.4,13.1-23.8,27.2-33.3,42.5 C278.1,267.1,286.7,228.6,307.4,195.4z M113.4,447.9c-0.6-7.5-1.6-17.8,1-25.8c3.9,39.3,17.6,77.3,39.2,110.1 C132.2,508.6,116.1,480.4,113.4,447.9z M183,559.8c0-0.1,0-0.3-0.1-0.4c-36.8-39.5-59.3-91.3-63-145.2c0-0.3,0-0.7-0.1-1 c0.2,0.2,0.4,0.5,0.6,0.7c18,20.6,29.9,45.5,39.3,71c4.8,12.9,9.1,26,13.3,39.1c3.8,11.6,7.4,23.4,9.7,35.4c0.4,0.5,0.9,0.9,1.3,1.4 C183.8,560.5,183.4,560.1,183,559.8z M188.8,557.3c-2.2-11.1-5.3-21.9-8.8-32.7c-4.7-14.5-9.4-29-14.8-43.2 c-8.9-23.6-19.8-46.4-35.5-66.1c6.2,3.1,12.5,9.3,15.8,12.3c16.8,15.2,30.1,34.5,37.6,55.9C191.6,507.3,193.8,532.7,188.8,557.3z" style="fill: inherit;"/></g></svg>