<svg width="22" height="24" viewBox="0 0 22 24" fill="none" xmlns="http://www.w3.org/2000/svg">
<mask id="mask0_120_365" style="mask-type:luminance" maskUnits="userSpaceOnUse" x="0" y="0" width="22" height="24">
<path d="M21.25 0H0.25V24H21.25V0Z" fill="white"/>
</mask>
<g mask="url(#mask0_120_365)">
<path d="M10.7543 6.60977C7.77305 6.60977 5.36836 9.01445 5.36836 11.9957C5.36836 14.977 7.77305 17.3816 10.7543 17.3816C13.7355 17.3816 16.1402 14.977 16.1402 11.9957C16.1402 9.01445 13.7355 6.60977 10.7543 6.60977ZM10.7543 15.4973C8.82773 15.4973 7.25273 13.927 7.25273 11.9957C7.25273 10.0645 8.82305 8.49414 10.7543 8.49414C12.6855 8.49414 14.2559 10.0645 14.2559 11.9957C14.2559 13.927 12.6809 15.4973 10.7543 15.4973ZM17.6168 6.38945C17.6168 7.08789 17.0543 7.6457 16.3605 7.6457C15.6621 7.6457 15.1043 7.0832 15.1043 6.38945C15.1043 5.6957 15.6668 5.1332 16.3605 5.1332C17.0543 5.1332 17.6168 5.6957 17.6168 6.38945ZM21.184 7.66445C21.1043 5.98164 20.7199 4.49102 19.4871 3.26289C18.259 2.03477 16.7684 1.65039 15.0855 1.56602C13.3512 1.46758 8.15273 1.46758 6.41836 1.56602C4.74023 1.6457 3.24961 2.03008 2.0168 3.2582C0.783984 4.48633 0.404297 5.97695 0.319922 7.65977C0.221484 9.39414 0.221484 14.5926 0.319922 16.327C0.399609 18.0098 0.783984 19.5004 2.0168 20.7285C3.24961 21.9566 4.73555 22.341 6.41836 22.4254C8.15273 22.5238 13.3512 22.5238 15.0855 22.4254C16.7684 22.3457 18.259 21.9613 19.4871 20.7285C20.7152 19.5004 21.0996 18.0098 21.184 16.327C21.2824 14.5926 21.2824 9.39883 21.184 7.66445ZM18.9434 18.1879C18.5777 19.1066 17.8699 19.8145 16.9465 20.1848C15.5637 20.7332 12.2824 20.6066 10.7543 20.6066C9.22617 20.6066 5.94023 20.7285 4.56211 20.1848C3.64336 19.8191 2.93555 19.1113 2.56523 18.1879C2.0168 16.8051 2.14336 13.5238 2.14336 11.9957C2.14336 10.4676 2.02148 7.18164 2.56523 5.80352C2.93086 4.88477 3.63867 4.17695 4.56211 3.80664C5.94492 3.2582 9.22617 3.38477 10.7543 3.38477C12.2824 3.38477 15.5684 3.26289 16.9465 3.80664C17.8652 4.17227 18.573 4.88008 18.9434 5.80352C19.4918 7.18633 19.3652 10.4676 19.3652 11.9957C19.3652 13.5238 19.4918 16.8098 18.9434 18.1879Z" fill="black"/>
</g>
</svg>
