<svg width="69" height="68" viewBox="0 0 69 68" fill="none" xmlns="http://www.w3.org/2000/svg">
<rect x="0.5" width="68" height="68" rx="24" fill="white" fill-opacity="0.1"/>
<path d="M52.502 29.0912C52.502 29.9949 51.7693 30.7275 50.8656 30.7275H44.3462C44.0419 30.7275 43.7499 30.8479 43.5339 31.0622C43.0595 31.5333 43.0839 32.3078 43.587 32.748L51.9412 40.0579C52.2963 40.3686 52.5 40.8175 52.5 41.2894V48.7173C52.5 49.6255 51.7603 50.36 50.8521 50.3536L43.2885 50.3002C42.8969 50.2974 42.5194 50.1544 42.2243 49.897L28.5756 37.9907C28.0372 37.5211 27.2274 37.5473 26.7205 38.0507C26.4631 38.3064 26.3184 38.6542 26.3184 39.017V48.7279C26.3184 49.6316 25.5857 50.3643 24.682 50.3643H18.1364C17.2326 50.3643 16.5 49.6316 16.5 48.7279V38.9098C16.5 38.0061 17.2326 37.2734 18.1364 37.2734H24.7125C25.0136 37.2734 25.3025 37.1543 25.5161 36.9421C25.9855 36.4758 25.9606 35.7091 25.462 35.2741L17.0607 27.9451C16.7044 27.6344 16.5 27.1848 16.5 26.712V19.2741C16.5 18.3703 17.2326 17.6377 18.1364 17.6377H25.7035C26.0999 17.6377 26.4828 17.7816 26.7811 18.0426L40.4968 30.044C41.0178 30.5 41.8028 30.4752 42.2941 29.9873C42.5434 29.7398 42.6836 29.403 42.6836 29.0517V19.2731C42.6836 18.3693 43.4162 17.6367 44.32 17.6367H50.8656C51.7693 17.6367 52.502 18.3693 52.502 19.2731V29.0912Z" fill="white"/>
</svg>
