<svg width="196" height="28" viewBox="0 0 196 28" fill="none" xmlns="http://www.w3.org/2000/svg">
<path d="M6.48958 22.3611H20.5868C21.235 22.3611 21.7988 22.1213 22.2785 21.6417C22.7711 21.1491 23.0174 20.5463 23.0174 19.8333V8.16667C23.0174 7.4537 22.7711 6.85741 22.2785 6.37778C21.7988 5.88519 21.235 5.63889 20.5868 5.63889H6.48958V22.3611ZM0.65625 1.36111C0.65625 0.453704 1.14236 0 2.11458 0H20.5868C22.8942 0 24.8451 0.803704 26.4396 2.41111C28.047 4.00556 28.8507 5.92407 28.8507 8.16667V19.8333C28.8507 22.0759 28.047 24.0009 26.4396 25.6083C24.8451 27.2028 22.8942 28 20.5868 28H2.11458C1.14236 28 0.65625 27.5463 0.65625 26.6389V1.36111Z" fill="white"/>
<path d="M41.763 26.6389C41.763 27.5463 41.2769 28 40.3047 28H37.388C36.4158 28 35.9297 27.5463 35.9297 26.6389V1.36111C35.9297 0.453704 36.4158 0 37.388 0H40.3047C41.2769 0 41.763 0.453704 41.763 1.36111V26.6389Z" fill="white"/>
<path d="M54.6768 26.6389C54.6768 27.5463 54.1907 28 53.2185 28H50.3018C49.3296 28 48.8435 27.5463 48.8435 26.6389V1.36111C48.8435 0.453704 49.3296 0 50.3018 0H53.2185C54.1907 0 54.6768 0.453704 54.6768 1.36111V26.6389Z" fill="white"/>
<path d="M83.0093 10.6158C83.454 11.0049 84.1239 10.9837 84.543 10.5672C84.7555 10.356 84.875 10.0688 84.875 9.76925V1.40098C84.875 0.627777 85.5018 0.000976562 86.275 0.000976562H91.8754C92.6486 0.000976562 93.2754 0.627778 93.2754 1.40098V9.80117C93.2754 10.5744 92.6486 11.2012 91.8754 11.2012H86.297C86.0373 11.2012 85.7882 11.3038 85.6039 11.4868C85.1988 11.8888 85.2196 12.5499 85.649 12.9257L92.7993 19.1823C93.1031 19.4481 93.2773 19.8322 93.2773 20.2359V26.5902C93.2773 27.3672 92.6446 27.9956 91.8676 27.9902L85.3962 27.945C85.0612 27.9427 84.7381 27.8203 84.4856 27.6L72.8112 17.4156C72.3497 17.0131 71.6556 17.0357 71.2213 17.4673C71.0009 17.6864 70.877 17.9843 70.877 18.2951V26.6059C70.877 27.3791 70.2502 28.0059 69.477 28.0059H63.8766C63.1034 28.0059 62.4766 27.3791 62.4766 26.6059V18.2057C62.4766 17.4325 63.1034 16.8057 63.8766 16.8057H69.4979C69.7569 16.8057 70.0055 16.7031 70.1892 16.5205C70.5925 16.1194 70.571 15.4603 70.1424 15.0864L62.9572 8.81884C62.6525 8.55297 62.4775 8.16828 62.4775 7.76382V1.4C62.4775 0.626801 63.1043 0 63.8775 0H70.3509C70.69 0 71.0176 0.123086 71.2728 0.346393L83.0093 10.6158Z" fill="white"/>
<path d="M110.106 5.63889H100.384C99.4119 5.63889 98.9258 5.18519 98.9258 4.27778V1.36111C98.9258 0.453704 99.4119 0 100.384 0H125.662C126.634 0 127.12 0.453704 127.12 1.36111V4.27778C127.12 5.18519 126.634 5.63889 125.662 5.63889H115.94V26.6389C115.94 27.5463 115.454 28 114.481 28H111.565C110.592 28 110.106 27.5463 110.106 26.6389V5.63889Z" fill="white"/>
<path d="M138.851 11.2L159.754 11.1806C160.726 11.1806 161.212 11.6343 161.212 12.5417V15.4583C161.212 16.3657 160.726 16.8194 159.754 16.8194H142.973L138.851 11.7056V19.8333C138.851 20.5463 139.091 21.1491 139.57 21.6417C140.063 22.1213 140.633 22.3611 141.281 22.3611H159.754C160.726 22.3611 161.212 22.8148 161.212 23.7222V26.6389C161.212 27.5463 160.726 28 159.754 28H141.281C138.974 28 137.017 27.2028 135.409 25.6083C133.815 24.0009 133.018 22.0759 133.018 19.8333V1.36111C133.018 0.453704 133.504 0 134.476 0H159.754C160.726 0 161.212 0.453704 161.212 1.36111V4.27778C161.212 5.18519 160.726 5.63889 159.754 5.63889H138.851V11.2Z" fill="white"/>
<path d="M172.945 8.16667V19.8333C172.945 20.5463 173.184 21.1491 173.664 21.6417C174.157 22.1213 174.727 22.3611 175.375 22.3611H193.847C194.82 22.3611 195.306 22.8148 195.306 23.7222V26.6389C195.306 27.5463 194.82 28 193.847 28H175.375C173.068 28 171.11 27.2028 169.503 25.6083C167.909 24.0009 167.111 22.0759 167.111 19.8333V8.16667C167.111 5.92407 167.909 4.00556 169.503 2.41111C171.11 0.803704 173.068 0 175.375 0H193.847C194.82 0 195.306 0.453704 195.306 1.36111V4.27778C195.306 5.18519 194.82 5.63889 193.847 5.63889H175.375C174.727 5.63889 174.157 5.88519 173.664 6.37778C173.184 6.85741 172.945 7.4537 172.945 8.16667Z" fill="white"/>
</svg>
