<svg width="24" height="25" viewBox="0 0 24 25" fill="none" xmlns="http://www.w3.org/2000/svg">
<path d="M13.7299 4.01063L15.4899 7.53063C15.7299 8.02063 16.3699 8.49062 16.9099 8.58063L20.0999 9.11062C22.1399 9.45062 22.6199 10.9306 21.1499 12.3906L18.6699 14.8706C18.2499 15.2906 18.0199 16.1006 18.1499 16.6806L18.8599 19.7506C19.4199 22.1806 18.1299 23.1206 15.9799 21.8506L12.9899 20.0806C12.4499 19.7606 11.5599 19.7606 11.0099 20.0806L8.01991 21.8506C5.87991 23.1206 4.57991 22.1706 5.13991 19.7506L5.84991 16.6806C5.97991 16.1006 5.74991 15.2906 5.32991 14.8706L2.84991 12.3906C1.38991 10.9306 1.85991 9.45062 3.89991 9.11062L7.08991 8.58063C7.61991 8.49062 8.25991 8.02063 8.49991 7.53063L10.2599 4.01063C11.2199 2.10063 12.7799 2.10063 13.7299 4.01063Z" fill="#F6C720"/>
</svg>
